<svg class="lds-gear-set" width="64px"  height="64px"  xmlns="http://www.w3.org/2000/svg" xmlns:xlink="http://www.w3.org/1999/xlink" viewBox="0 0 100 100" preserveAspectRatio="xMidYMid" style="background: none;"><g transform="translate(50 50)"> <g transform="translate(-17 -17) scale(0.5)"> <g transform="rotate(254.361)">
<animateTransform attributeName="transform" type="rotate" values="0;360" keyTimes="0;1" dur="2.5s" begin="0s" repeatCount="indefinite"></animateTransform><path d="M37.66961640367473 -5 L45.66961640367473 -5 L45.66961640367473 5 L37.66961640367473 5 A38 38 0 0 1 33.41428610362051 18.096560009719898 L33.41428610362051 18.096560009719898 L39.88642205862009 22.79884202805968 L34.00856953569536 30.889011971809154 L27.53643358069578 26.186729953469367 A38 38 0 0 1 16.395834221796544 34.28084917517892 L16.395834221796544 34.28084917517892 L18.867970176796124 41.88930130554015 L9.357405013844598 44.979471249289624 L6.885269058845019 37.371019118928395 A38 38 0 0 1 -6.885269058845014 37.371019118928395 L-6.885269058845014 37.371019118928395 L-9.357405013844593 44.979471249289624 L-18.86797017679612 41.88930130554015 L-16.39583422179654 34.28084917517892 A38 38 0 0 1 -27.53643358069578 26.18672995346937 L-27.53643358069578 26.18672995346937 L-34.00856953569536 30.889011971809158 L-39.886422058620084 22.79884202805969 L-33.414286103620505 18.0965600097199 A38 38 0 0 1 -37.66961640367473 5 L-37.66961640367473 5 L-45.66961640367473 5.000000000000001 L-45.66961640367473 -4.99999999999999 L-37.66961640367473 -4.999999999999991 A38 38 0 0 1 -33.41428610362051 -18.096560009719894 L-33.41428610362051 -18.096560009719894 L-39.88642205862009 -22.798842028059678 L-34.00856953569536 -30.889011971809147 L-27.536433580695782 -26.186729953469364 A38 38 0 0 1 -16.395834221796566 -34.28084917517891 L-16.395834221796566 -34.28084917517891 L-18.867970176796145 -41.88930130554014 L-9.357405013844588 -44.979471249289624 L-6.885269058845007 -37.371019118928395 A38 38 0 0 1 6.885269058844993 -37.371019118928395 L6.885269058844993 -37.371019118928395 L9.357405013844572 -44.979471249289624 L18.867970176796135 -41.88930130554015 L16.395834221796555 -34.28084917517892 A38 38 0 0 1 27.536433580695764 -26.186729953469385 L27.536433580695764 -26.186729953469385 L34.008569535695344 -30.889011971809172 L39.88642205862009 -22.798842028059678 L33.41428610362051 -18.09656000971989 A38 38 0 0 1 37.66961640367472 -5.000000000000022 M0 -28A28 28 0 1 0 0 28 A28 28 0 1 0 0 -28" fill="#0ca8d8"></path></g></g> <g transform="translate(0 22) scale(0.4)"> <g transform="rotate(87.639)">
<animateTransform attributeName="transform" type="rotate" values="360;0" keyTimes="0;1" dur="2.5s" begin="-0.125s" repeatCount="indefinite"></animateTransform><path d="M37.66961640367473 -5 L45.66961640367473 -5 L45.66961640367473 5 L37.66961640367473 5 A38 38 0 0 1 33.41428610362051 18.096560009719898 L33.41428610362051 18.096560009719898 L39.88642205862009 22.79884202805968 L34.00856953569536 30.889011971809154 L27.53643358069578 26.186729953469367 A38 38 0 0 1 16.395834221796544 34.28084917517892 L16.395834221796544 34.28084917517892 L18.867970176796124 41.88930130554015 L9.357405013844598 44.979471249289624 L6.885269058845019 37.371019118928395 A38 38 0 0 1 -6.885269058845014 37.371019118928395 L-6.885269058845014 37.371019118928395 L-9.357405013844593 44.979471249289624 L-18.86797017679612 41.88930130554015 L-16.39583422179654 34.28084917517892 A38 38 0 0 1 -27.53643358069578 26.18672995346937 L-27.53643358069578 26.18672995346937 L-34.00856953569536 30.889011971809158 L-39.886422058620084 22.79884202805969 L-33.414286103620505 18.0965600097199 A38 38 0 0 1 -37.66961640367473 5 L-37.66961640367473 5 L-45.66961640367473 5.000000000000001 L-45.66961640367473 -4.99999999999999 L-37.66961640367473 -4.999999999999991 A38 38 0 0 1 -33.41428610362051 -18.096560009719894 L-33.41428610362051 -18.096560009719894 L-39.88642205862009 -22.798842028059678 L-34.00856953569536 -30.889011971809147 L-27.536433580695782 -26.186729953469364 A38 38 0 0 1 -16.395834221796566 -34.28084917517891 L-16.395834221796566 -34.28084917517891 L-18.867970176796145 -41.88930130554014 L-9.357405013844588 -44.979471249289624 L-6.885269058845007 -37.371019118928395 A38 38 0 0 1 6.885269058844993 -37.371019118928395 L6.885269058844993 -37.371019118928395 L9.357405013844572 -44.979471249289624 L18.867970176796135 -41.88930130554015 L16.395834221796555 -34.28084917517892 A38 38 0 0 1 27.536433580695764 -26.186729953469385 L27.536433580695764 -26.186729953469385 L34.008569535695344 -30.889011971809172 L39.88642205862009 -22.798842028059678 L33.41428610362051 -18.09656000971989 A38 38 0 0 1 37.66961640367472 -5.000000000000022 M0 -28A28 28 0 1 0 0 28 A28 28 0 1 0 0 -28" fill="#7e6e4c"></path></g></g> <g transform="translate(28 4) scale(0.3)"> <g transform="rotate(272.361)">
<animateTransform attributeName="transform" type="rotate" values="0;360" keyTimes="0;1" dur="2.5s" begin="-0.125s" repeatCount="indefinite"></animateTransform><path d="M37.66961640367473 -5 L45.66961640367473 -5 L45.66961640367473 5 L37.66961640367473 5 A38 38 0 0 1 33.41428610362051 18.096560009719898 L33.41428610362051 18.096560009719898 L39.88642205862009 22.79884202805968 L34.00856953569536 30.889011971809154 L27.53643358069578 26.186729953469367 A38 38 0 0 1 16.395834221796544 34.28084917517892 L16.395834221796544 34.28084917517892 L18.867970176796124 41.88930130554015 L9.357405013844598 44.979471249289624 L6.885269058845019 37.371019118928395 A38 38 0 0 1 -6.885269058845014 37.371019118928395 L-6.885269058845014 37.371019118928395 L-9.357405013844593 44.979471249289624 L-18.86797017679612 41.88930130554015 L-16.39583422179654 34.28084917517892 A38 38 0 0 1 -27.53643358069578 26.18672995346937 L-27.53643358069578 26.18672995346937 L-34.00856953569536 30.889011971809158 L-39.886422058620084 22.79884202805969 L-33.414286103620505 18.0965600097199 A38 38 0 0 1 -37.66961640367473 5 L-37.66961640367473 5 L-45.66961640367473 5.000000000000001 L-45.66961640367473 -4.99999999999999 L-37.66961640367473 -4.999999999999991 A38 38 0 0 1 -33.41428610362051 -18.096560009719894 L-33.41428610362051 -18.096560009719894 L-39.88642205862009 -22.798842028059678 L-34.00856953569536 -30.889011971809147 L-27.536433580695782 -26.186729953469364 A38 38 0 0 1 -16.395834221796566 -34.28084917517891 L-16.395834221796566 -34.28084917517891 L-18.867970176796145 -41.88930130554014 L-9.357405013844588 -44.979471249289624 L-6.885269058845007 -37.371019118928395 A38 38 0 0 1 6.885269058844993 -37.371019118928395 L6.885269058844993 -37.371019118928395 L9.357405013844572 -44.979471249289624 L18.867970176796135 -41.88930130554015 L16.395834221796555 -34.28084917517892 A38 38 0 0 1 27.536433580695764 -26.186729953469385 L27.536433580695764 -26.186729953469385 L34.008569535695344 -30.889011971809172 L39.88642205862009 -22.798842028059678 L33.41428610362051 -18.09656000971989 A38 38 0 0 1 37.66961640367472 -5.000000000000022 M0 -28A28 28 0 1 0 0 28 A28 28 0 1 0 0 -28" fill="#495492"></path></g></g></g></svg>