<?xml version="1.0"?>
<svg xmlns="http://www.w3.org/2000/svg" height="512px" viewBox="-8 0 512 512.00027" width="512px"><g><path d="m.347656 495.609375c.316406 9.179687 7.878906 16.441406 17.066406 16.390625h461.207032c9.179687.042969 16.730468-7.207031 17.066406-16.375 1.308594-35.355469.148438-119.527344-37.648438-143.769531l-.085937-.101563c-34.703125-27.804687-106.886719-55.230468-134.988281-65.28125l-4.019532-27.964844c6.070313-8.679687 10.949219-18.132812 14.507813-28.109374h16.761719c18.847656 0 34.132812-15.28125 34.132812-34.132813v-34.132813c-.027344-8.238281-3.0625-16.179687-8.535156-22.339843v-67.480469c1.042969-38.792969-29.480469-71.125-68.265625-72.3125h-119.46875c-38.785156 1.1875-69.308594 33.519531-68.265625 72.3125v67.523438c-5.472656 6.140624-8.507812 14.070312-8.53125 22.296874v34.132813c.03125 5.679687 1.5 11.253906 4.265625 16.214844l3.097656 10.84375c6.980469 24.605469 27.167969 43.214843 52.257813 48.171875l3.789062.761718-2.039062 14.199219c-28.09375 10.058594-100.265625 37.484375-134.972656 65.285157l-.066407.078124c-36.125 23.117188-38.886719 99.796876-37.265625 143.789063zm131.121094-289.539063-3.121094-11.007812v-32.929688c-.035156-4.863281 2.054688-9.5 5.726563-12.695312 3.105469-2.816406 7.148437-4.375 11.339843-4.371094h3.726563c1.253906 4.394532 3.871094 8.277344 7.46875 11.09375-3.742187 18.894532-3.542969 38.359375.578125 57.171875h-11.773438c-5.546874-.011719-10.742187-2.722656-13.925781-7.261719zm104.695312-188.933593c3.886719-.046875 7.769532-.070313 11.648438-.070313s7.761719.023438 11.648438.070313c23.992187-1.117188 46.464843 11.738281 57.660156 32.988281 6.742187 12.039062 11 25.308594 12.527344 39.023438-21.246094-10.675782-43.96875-18.113282-67.414063-22.078126l-1.441406-.246093c-2.324219-.453125-4.675781-.742188-7.039063-.851563-3.839844-.335937-5.941406-.265625-5.941406-.335937-1.859375-.011719-3.722656.089843-5.570312.300781-2.375.105469-4.738282.390625-7.066407.851562-.734375.113282-1.355469.230469-1.621093.28125-23.503907 3.949219-46.28125 11.398438-67.578126 22.09375 1.527344-13.710937 5.785157-26.976562 12.527344-39.011718 11.1875-21.261719 33.664063-34.132813 57.660156-33.015625zm.332032 66.730469 1.5625-.273438c1.8125-.351562 3.644531-.570312 5.488281-.648438 1.414063-.164062 2.839844-.242187 4.265625-.242187.195312 0 1.707031 0 4.863281.285156 1.679688.078125 3.347657.289063 4.992188.621094l1.84375.316406c24.960937 4.332031 49.03125 12.769531 71.226562 24.976563 2.074219 15.164062 1.382813 31.035156-1.472656 33.441406 0 0-2.324219.179688-8.039063-4.105469-21.167968-16.277343-46.753906-25.792969-73.414062-27.304687-26.667969 1.507812-52.261719 11.027344-73.4375 27.304687-2.167969 1.941407-4.753906 3.347657-7.558594 4.113281-.085937 0-.164062-.042968-.25-.042968-1.417968-2.085938-2.214844-4.53125-2.304687-7.054688-.867188-8.792968-.644531-17.664062.660156-26.402344 22.308594-12.234374 46.496094-20.679687 71.574219-24.984374zm173.527344 411.066406h-136.609376v-165.09375c18.128907-4.042969 34.902344-12.703125 48.699219-25.140625.09375-.09375.109375-.230469.195313-.324219 27.921875 10.171875 84.914062 32.425781 117.683594 55.261719-10.75 14.472656-28.816407 51.25-29.96875 135.296875zm-106.835938-243.625c-5.832031 7.824218-13.027344 14.535156-21.242188 19.804687v-6.578125c0-9.425781-7.640624-17.070312-17.066406-17.070312h-34.132812c-8.679688.046875-15.945313 6.601562-16.878906 15.234375l-14.054688-2.816407c-1.347656-1.382812-2.730469-2.695312-4.011719-4.199218l-1.296875-1.65625c-.65625-.851563-1.328125-1.707032-2.097656-2.761719-7.175781-9.613281-12.605469-20.410156-16.050781-31.898437-6.148438-19.898438-7.03125-41.050782-2.558594-61.390626 3.917969-1.441406 7.589844-3.496093 10.871094-6.082031 18.265625-13.953125 40.214843-22.257812 63.144531-23.894531 22.945312 1.554688 44.917969 9.867188 63.148438 23.894531 3.269531 2.527344 6.894531 4.554688 10.757812 6.023438 4.5625 20.34375 3.722656 41.523437-2.4375 61.441406-3.457031 11.507813-8.902344 22.320313-16.09375 31.949219zm-72.441406 30.292968v-17.066406h34.132812v17.066406zm-13.074219 10.828126c3.207031 3.929687 8.003906 6.21875 13.074219 6.238281h34.132812c5.09375-.019531 9.910156-2.328125 13.117188-6.289063 9.640625-4.078125 18.484375-9.828125 26.121094-16.984375l2.859374 19.882813c-34.730468 27.269531-83.597656 27.269531-118.324218 0l2.816406-19.625c7.671875 7.097656 16.546875 12.777344 26.203125 16.777344zm-44.160156 12.269531c13.796875 12.4375 30.574219 21.097656 48.703125 25.140625v165.09375h-136.613282c-1.152343-84.046875-19.214843-120.824219-29.96875-135.296875 32.769532-22.878907 89.78125-45.089844 117.683594-55.261719.085938.09375.101563.265625.195313.324219zm65.769531 190.234375v-162.457032c2.773438.203126 5.613281.324219 8.53125.324219s5.761719-.121093 8.535156-.324219v162.457032zm239.351562 0h-51.558593c1.160156-80.433594 18.574219-113.785156 26.621093-124.960938 20.898438 20.273438 26.71875 76.457032 24.9375 124.960938zm-111.351562-298.667969c0 9.425781-7.640625 17.066406-17.066406 17.066406h-11.777344c4.136719-18.8125 4.320312-38.28125.539062-57.171875 3.574219-2.839844 6.1875-6.714844 7.480469-11.09375h3.757813c9.425781 0 17.066406 7.640625 17.066406 17.066406zm-8.535156-123.953125v56.898438c-2.78125-.769532-5.648438-1.175782-8.53125-1.210938h-1.128906c.105468-8.484375-.570313-16.960938-2.023438-25.320312.589844-21.222657-4.578125-42.207032-14.957031-60.730469-5.082031-9.496094-12.015625-17.878907-20.394531-24.652344 27.523437 3.457031 47.898437 27.289063 47.035156 55.015625zm-174.820313-55.015625c-8.382812 6.773437-15.320312 15.160156-20.40625 24.660156-10.382812 18.523438-15.550781 39.507813-14.957031 60.734375-1.308594 8.371094-1.933594 16.835938-1.878906 25.308594h-1.269532c-2.886718.042969-5.753906.453125-8.535156 1.21875v-56.90625c-.863281-27.730469 19.515625-51.5625 47.046875-55.015625zm-44.050781 212.539063c1.828125.339843 3.679688.527343 5.539062.5625h16.757813c3.050781 8.535156 7.058594 16.699218 11.949219 24.332031-14.488282-2.933594-26.988282-12.015625-34.246094-24.894531zm-97.953125 140.167968c8.140625 11.316406 25.472656 44.714844 26.632813 124.929688h-51.140626c-1.800781-48.546875 3.898438-104.710938 24.507813-124.929688zm-24.507813 124.980469-8.535156.308594zm0 0" data-original="#000000" class="active-path" data-old_color="#000000" fill="#25B1DC"/><path d="m119.8125 426.667969h59.734375c9.425781 0 17.066406-7.640625 17.066406-17.066407v-17.066406c0-9.425781-7.640625-17.070312-17.066406-17.070312h-59.734375c-9.425781 0-17.066406 7.644531-17.066406 17.070312v17.066406c0 9.425782 7.640625 17.066407 17.066406 17.066407zm0-34.132813h59.734375v17.066406h-59.734375zm0 0" data-original="#000000" class="active-path" data-old_color="#000000" fill="#25B1DC"/><path d="m188.078125 443.734375h-76.796875c-4.714844 0-8.535156 3.820313-8.535156 8.53125 0 4.714844 3.820312 8.535156 8.535156 8.535156h76.796875c4.714844 0 8.535156-3.820312 8.535156-8.535156 0-4.710937-3.820312-8.53125-8.535156-8.53125zm0 0" data-original="#000000" class="active-path" data-old_color="#000000" fill="#25B1DC"/><path d="m350.214844 366.933594c-28.277344 0-51.203125 22.921875-51.203125 51.199218 0 28.277344 22.925781 51.199219 51.203125 51.199219 28.273437 0 51.199218-22.921875 51.199218-51.199219-.027343-28.265624-22.9375-51.171874-51.199218-51.199218zm0 85.332031c-18.851563 0-34.136719-15.28125-34.136719-34.132813 0-18.851562 15.285156-34.132812 34.136719-34.132812 18.847656 0 34.132812 15.28125 34.132812 34.132812 0 18.851563-15.285156 34.132813-34.132812 34.132813zm0 0" data-original="#000000" class="active-path" data-old_color="#000000" fill="#25B1DC"/><path d="m222.214844 187.734375c0 4.710937-3.820313 8.53125-8.535156 8.53125-4.710938 0-8.535157-3.820313-8.535157-8.53125 0-4.714844 3.824219-8.535156 8.535157-8.535156 4.714843 0 8.535156 3.820312 8.535156 8.535156zm0 0" data-original="#000000" class="active-path" data-old_color="#000000" fill="#25B1DC"/><path d="m290.480469 187.734375c0 4.710937-3.820313 8.53125-8.535157 8.53125-4.710937 0-8.53125-3.820313-8.53125-8.53125 0-4.714844 3.820313-8.535156 8.53125-8.535156 4.714844 0 8.535157 3.820312 8.535157 8.535156zm0 0" data-original="#000000" class="active-path" data-old_color="#000000" fill="#25B1DC"/><path d="m244.972656 179.695312c-4.441406 1.570313-6.769531 6.4375-5.207031 10.878907 2.824219 7.488281 4.476563 15.367187 4.898437 23.355469-3.8125 1.507812-6.015624 5.511718-5.246093 9.539062s4.296875 6.9375 8.394531 6.929688c4.285156.085937 8.328125-1.980469 10.769531-5.503907 6.621094-9.386719 1.144531-29.089843-2.730469-40.003906-1.574218-4.433594-6.441406-6.761719-10.878906-5.195313zm0 0" data-original="#000000" class="active-path" data-old_color="#000000" fill="#25B1DC"/><path d="m358.746094 409.601562h-17.066406c-4.710938 0-8.535157 3.820313-8.535157 8.53125 0 4.714844 3.824219 8.535157 8.535157 8.535157h17.066406c4.714844 0 8.535156-3.820313 8.535156-8.535157 0-4.710937-3.820312-8.53125-8.535156-8.53125zm0 0" data-original="#000000" class="active-path" data-old_color="#000000" fill="#25B1DC"/><path d="m222.214844 153.601562h-6.992188c-7.949218.007813-15.789062 1.859376-22.902344 5.410157l-8.054687 4.019531c-4.21875 2.105469-5.929687 7.230469-3.824219 11.449219 2.109375 4.21875 7.234375 5.929687 11.453125 3.824219l8.0625-4.027344c4.742188-2.371094 9.96875-3.605469 15.265625-3.609375h6.992188c4.710937 0 8.53125-3.820313 8.53125-8.535157 0-4.710937-3.820313-8.53125-8.53125-8.53125zm0 0" data-original="#000000" class="active-path" data-old_color="#000000" fill="#25B1DC"/><path d="m311.359375 163.03125-8.054687-4.019531c-7.113282-3.550781-14.953126-5.402344-22.902344-5.410157h-6.988282c-4.714843 0-8.535156 3.820313-8.535156 8.53125 0 4.714844 3.820313 8.535157 8.535156 8.535157h6.988282c5.300781.003906 10.527344 1.238281 15.265625 3.609375l8.0625 4.027344c4.21875 2.105468 9.347656.394531 11.453125-3.824219 2.105468-4.21875.394531-9.34375-3.824219-11.449219zm0 0" data-original="#000000" class="active-path" data-old_color="#000000" fill="#25B1DC"/></g> </svg>
