<?xml version="1.0"?>
<svg xmlns="http://www.w3.org/2000/svg" xmlns:xlink="http://www.w3.org/1999/xlink" version="1.1" id="Capa_1" x="0px" y="0px" width="512px" height="512px" viewBox="0 0 459.996 459.997" style="enable-background:new 0 0 459.996 459.997;" xml:space="preserve"><g><g>
	<g>
		<path d="M442.587,239.556l-128.676-21.11c-0.554-0.1-1.103-0.167-1.652-0.221c-11.205-32.944-33.547-60.676-60.729-70.562    l-0.898-12.562h21.521c7.348,0,13.304-5.956,13.304-13.302c0-7.346-5.956-13.302-13.304-13.302h-23.428l-2.904-40.594    c-0.493-6.913-6.245-12.268-13.178-12.268h-5.306c-6.929,0-12.682,5.355-13.177,12.268l-2.904,40.594h-23.408    c-7.346,0-13.302,5.956-13.302,13.302c0,7.346,5.956,13.302,13.302,13.302h21.502l-0.898,12.569    c-27.175,9.893-49.51,37.619-60.71,70.554c-0.551,0.055-1.099,0.122-1.653,0.222l-128.675,21.11    C6.641,241.47-0.879,251.295,0.083,262.191c0.96,10.896,10.09,19.252,21.029,19.252h26.086c-0.054,0.781-0.098,1.563-0.098,2.355    c0,17.46,14.207,31.665,31.666,31.665s31.665-14.204,31.665-31.665c0-0.792-0.043-1.576-0.097-2.355h30.771    c0.758,5.371,1.875,10.5,3.316,15.381v41.505c-1.054-0.254-2.152-0.396-3.282-0.396c-7.774,0-14.074,6.301-14.074,14.073v10.705    c0,7.771,6.3,14.073,14.074,14.073c4.082,0,7.746-1.748,10.317-4.528c2.571,2.78,6.235,4.528,10.323,4.528    c7.77,0,14.073-6.302,14.073-14.073v-10.705c0-7.772-6.304-14.073-14.073-14.073c-1.135,0-2.232,0.142-3.284,0.396V325.31    c15.126,20.328,38.213,32.32,64.468,34.131v7.967c-4.197,2.435-7.037,6.97-7.037,12.174v10.708c0,7.771,6.3,14.071,14.074,14.071    c7.773,0,14.074-6.303,14.074-14.071v-10.708c0-5.204-2.841-9.739-7.037-12.174v-7.967c26.255-1.811,49.342-13.803,64.468-34.131    v13.019c-1.052-0.254-2.147-0.396-3.284-0.396c-7.77,0-14.071,6.301-14.071,14.073v10.705c0,7.771,6.304,14.073,14.071,14.073    c4.088,0,7.752-1.748,10.324-4.528c2.57,2.78,6.234,4.528,10.316,4.528c7.773,0,14.072-6.302,14.072-14.073v-10.705    c0-7.772-6.299-14.073-14.072-14.073c-1.13,0-2.229,0.142-3.282,0.396v-41.505c1.439-4.879,2.559-10.01,3.314-15.381h30.771    c-0.054,0.781-0.097,1.563-0.097,2.355c0,17.461,14.206,31.665,31.665,31.665s31.665-14.204,31.665-31.665    c0-0.792-0.043-1.576-0.099-2.355h26.086c10.94,0,20.069-8.354,21.027-19.252C460.879,251.295,453.36,241.47,442.587,239.556z     M78.766,294.355c-5.816,0-10.555-4.733-10.555-10.557c0-5.818,4.738-10.552,10.555-10.552s10.553,4.732,10.553,10.552    C89.318,289.622,84.582,294.355,78.766,294.355z M287.594,229.041c-1.271,2.358-3.432,4.122-6.001,4.891    c-17.021,5.104-34.376,7.688-51.593,7.688s-34.572-2.585-51.591-7.688c-5.348-1.604-8.387-7.242-6.784-12.597l7.262-24.226    c1.605-5.354,7.246-8.395,12.6-6.788c13.106,3.928,25.705,5.839,38.514,5.839c12.812,0,25.408-1.911,38.516-5.84    c2.572-0.77,5.346-0.489,7.711,0.785c2.362,1.273,4.123,3.434,4.889,6.004l7.266,24.227    C289.15,223.905,288.868,226.677,287.594,229.041z M381.234,294.355c-5.816,0-10.555-4.733-10.555-10.557    c0-5.818,4.736-10.552,10.555-10.552c5.815,0,10.554,4.732,10.554,10.552C391.788,289.622,387.051,294.355,381.234,294.355z" data-original="#000000" class="active-path" data-old_color="#000000" fill="#40BBE0"/>
	</g>
</g></g> </svg>
