<?xml version="1.0"?>
<svg xmlns="http://www.w3.org/2000/svg" xmlns:xlink="http://www.w3.org/1999/xlink" version="1.1" id="Capa_1" x="0px" y="0px" viewBox="0 0 38.976 38.976" style="enable-background:new 0 0 38.976 38.976;" xml:space="preserve" width="512px" height="512px"><g><g>
	<path d="M38.976,0.209L35.51,0.806l-9.12,7.552l-7.228-1.276l-6.296-1.116L7.07,4.937L3.109,8.313   l16.148,7.411l-9.66,11.755c-0.255,0.254-0.487,0.506-0.691,0.756l-6.035-2.452L0,28.654l6.453,2.957l0.271,0.271L4.686,34.12   l0.931,0.848l1.998-2.195l0.78,0.779l2.719,5.215l2.661-2.666l-3.104-6.138c0.158-0.11,0.311-0.231,0.448-0.373l12.534-9.847   l0.169,0.168l8.425,16.709l2.96-3.547l-1.209-6.192l-1.207-6.187l-1.593-8.157l-0.049-0.052l7.023-8.408L38.976,0.209z" data-original="#030104" class="active-path" data-old_color="#030104" fill="#40BBE0"/>
</g></g> </svg>
