<svg id="Layer_1" data-name="Layer 1" xmlns="http://www.w3.org/2000/svg" viewBox="0 0 696.78 696.78"><defs><style>.cls-1{fill:#00a573;}</style></defs><title>area</title><path class="cls-1" d="M682.5,687.77c-168,0-304.38-136.42-304.38-304.38S514.54,79,682.5,79,986.88,215.43,986.88,383.39,850.46,687.77,682.5,687.77M682.5,35C490.34,35,334.11,191.23,334.11,383.39S490.34,731.78,682.5,731.78s348.39-156.23,348.39-348.39S874.66,35,682.5,35" transform="translate(-334.11 -35)"/><path class="cls-1" d="M846.79,527.15h20.54V301.24H846.79ZM497.67,280.71H867.33c14.38,0,20.54-8.21,20.54-20.54V239.63H477.13v20.54c0,12.32,8.21,20.54,20.54,20.54M703,383.39c12.32,0,20.54-8.21,20.54-20.54s-8.21-20.54-20.54-20.54-20.54,8.21-20.54,20.54,8.21,20.54,20.54,20.54m-102.68,0c12.32,0,20.54-8.21,20.54-20.54s-8.21-20.54-20.54-20.54-20.54,8.21-20.54,20.54,8.21,20.54,20.54,20.54M497.67,527.15h20.54V486.07h61.61v41.07h41.07V486.07H682.5v41.07h41.07V486.07h82.15V465.54H744.11V424.46c0-20.54-20.54-30.81-41.07-30.81S662,403.93,662,424.46v41.07H641.43V424.46c0-20.54-20.54-30.81-41.07-30.81s-41.07,10.27-41.07,30.81v41.07H518.21V301.24H497.67Z" transform="translate(-334.11 -35)"/></svg>