<svg id="Layer_1" data-name="Layer 1" xmlns="http://www.w3.org/2000/svg" viewBox="0 0 599 599"><defs><style>.cls-1{fill:#00a673;}</style></defs><title>car</title><path class="cls-1" d="M824.74,406.93A10,10,0,0,1,814.65,417H775.56a10,10,0,0,1-10.09-10.09v-8.2a10,10,0,0,1,10.09-10.09h39.09a10,10,0,0,1,10.09,10.09Zm-223.21,0A10,10,0,0,1,591.44,417H552.35a10,10,0,0,1-10.09-10.09v-8.2a10,10,0,0,1,10.09-10.09h39.09a10,10,0,0,1,10.09,10.09Zm-30.9-123.58c6.94-24.59,30.27-41.61,55.49-41.61H740.88a57.51,57.51,0,0,1,55.49,41.61L809,325.59H558ZM837.35,338.2h8.2a10,10,0,0,0,10.09-10.09v-8.2a10,10,0,0,0-10.09-10.09H829.15l-9.46-33.42a81.72,81.72,0,0,0-78.19-58.64H626.75a81.72,81.72,0,0,0-78.19,58.64l-9.46,33.42h-17A10,10,0,0,0,512,319.91v8.2a10,10,0,0,0,10.09,10.09h8.2c-17,12-27.74,31.53-27.74,54.23v72.51a16.69,16.69,0,0,0,16.39,16.39h21.44v32.16a16.28,16.28,0,0,0,16.39,16.39h12.61a16.28,16.28,0,0,0,16.39-16.39V481.33H781.23v32.16a16.28,16.28,0,0,0,16.39,16.39h12.61a16.69,16.69,0,0,0,16.39-16.39V481.33h21.44a16.69,16.69,0,0,0,16.39-16.39V392.42a63.36,63.36,0,0,0-27.11-54.23" transform="translate(-384 -84.09)"/><path class="cls-1" d="M683.5,645.26c-144.39,0-261.67-117.28-261.67-261.67S539.11,121.93,683.5,121.93,945.17,239.2,945.17,383.59,827.89,645.26,683.5,645.26m0-561.17C518.3,84.09,384,218.4,384,383.59s134.3,299.5,299.5,299.5S983,548.79,983,383.59,848.7,84.09,683.5,84.09" transform="translate(-384 -84.09)"/></svg>