<svg id="Layer_1" data-name="Layer 1" xmlns="http://www.w3.org/2000/svg" viewBox="0 0 655 655"><defs><style>.cls-1{fill:#00a573;}</style></defs><title>elevator</title><path class="cls-1" d="M682.5,669.48c-157.89,0-286.13-128.24-286.13-286.13S524.61,97.22,682.5,97.22,968.63,225.46,968.63,383.35,840.39,669.48,682.5,669.48m0-613.63C501.86,55.85,355,202.71,355,383.35s146.86,327.5,327.5,327.5S1010,564,1010,383.35,863.14,55.85,682.5,55.85" transform="translate(-355 -55.85)"/><path class="cls-1" d="M729.3,248.67c4.92,7.24,4.92,7.24,9.82,0l41.89-60c7.24-10.6,7.24-10.6-5.43-10.6H692.84c-12.67,0-12.67,0-5.43,10.6Zm-139.87,7h82.74c12.67,0,12.67,0,5.43-10.6l-41.88-60c-4.92-7.5-4.92-7.5-9.83,0l-41.88,60c-7.25,10.6-7.25,10.6,5.43,10.6M738.35,374.59a21.08,21.08,0,0,1-20.95-21.2c0-11.38,9.57-20.17,20.95-20.17a20.08,20.08,0,0,1,20.42,20.17c0,11.89-9,21.2-20.42,21.2m-22,165.22c-2.32-26.12-3.1-52-3.61-76.28-9.83-1-15.26-3.1-15-6.21l2.59-36.71c1.3-19.4,12.67-32.32,36.71-32.32,25.08,0,37,12.93,38.27,32.32l2.59,36.71c.26,3.1-5.94,4.65-15,6.21-.77,24.3-1.29,50.16-3.87,76.28,0,.26-42.66.26-42.66,0m-89.2-165.22a21,21,0,0,1-20.68-21.2c0-11.38,9.57-20.17,20.68-20.17,11.38,0,20.68,8.79,20.68,20.17a20.86,20.86,0,0,1-20.68,21.2M606,539.81c-2.32-26.12-3.1-52-3.62-76.28-9.83-1-15.26-3.1-15-6.21l2.59-36.71c1.3-19.4,12.67-32.32,36.71-32.32,25.08,0,37,12.93,38.27,32.32l2.59,36.71c.26,3.1-5.94,4.65-15,6.21-.78,24.3-1.29,50.16-3.87,76.28,0,.26-42.66.26-42.66,0m-65.67,39H824.7c12.93,0,12.93,0,12.93-12.93V307.36c0-12.93,0-12.93-12.93-12.93H540.3c-12.93,0-12.93,0-12.93,12.93V565.92c0,12.93,0,12.93,12.93,12.93" transform="translate(-355 -55.85)"/></svg>