<svg id="Layer_1" data-name="Layer 1" xmlns="http://www.w3.org/2000/svg" viewBox="0 0 716.78 716.78"><defs><style>.cls-1{fill:#00a573;}</style></defs><title>online</title><path class="cls-1" d="M870.37,315.48H494.63V234H870.37Zm0,217.3H494.63V333.59H870.37Zm18.11-316.89h-412v335h412Z" transform="translate(-324.11 -25)"/><path class="cls-1" d="M598.75,252.11a22.64,22.64,0,1,1-22.64,22.64,22.63,22.63,0,0,1,22.64-22.64" transform="translate(-324.11 -25)"/><path class="cls-1" d="M657.6,252.11A22.64,22.64,0,1,1,635,274.74a22.63,22.63,0,0,1,22.64-22.64" transform="translate(-324.11 -25)"/><path class="cls-1" d="M539.9,252.11a22.64,22.64,0,1,1-22.64,22.64,22.63,22.63,0,0,1,22.64-22.64" transform="translate(-324.11 -25)"/><polygon class="cls-1" points="355.68 440.78 389.63 481.07 417.24 457.99 383.29 417.69 430.37 400.94 286.41 328.96 330.78 483.34 355.68 440.78"/><path class="cls-1" d="M682.5,696.51c-172.78,0-313.12-140.34-313.12-313.12S509.72,70.27,682.5,70.27,995.62,210.61,995.62,383.39,855.28,696.51,682.5,696.51M682.5,25C484.82,25,324.11,185.71,324.11,383.39S484.82,741.78,682.5,741.78s358.39-160.71,358.39-358.39S880.18,25,682.5,25" transform="translate(-324.11 -25)"/></svg>