<svg id="Layer_1" data-name="Layer 1" xmlns="http://www.w3.org/2000/svg" viewBox="0 0 698 698"><defs><style>.cls-1{fill:#00a573;}</style></defs><title>security</title><path class="cls-1" d="M684,689C515.75,689,379.08,552.3,379.08,384S515.75,79.13,684,79.13,988.92,215.79,988.92,384,852.25,689,684,689M684,35c-192.5,0-349,156.5-349,349S491.5,733,684,733s349-156.5,349-349S876.5,35,684,35" transform="translate(-335 -35.04)"/><path class="cls-1" d="M684,560.55a7.28,7.28,0,0,1-2.35-.37C583,527.27,537.05,459.67,537.05,347.48V259.31A7.35,7.35,0,0,1,542.2,252l139.6-44.08a7.4,7.4,0,0,1,4.41,0L825.8,252a7.35,7.35,0,0,1,5.14,7.35v88.17c0,112.19-45.92,179.79-144.6,212.71a7.28,7.28,0,0,1-2.35.37" transform="translate(-335 -35.04)"/></svg>