<svg id="Layer_1" data-name="Layer 1" xmlns="http://www.w3.org/2000/svg" viewBox="0 0 723.39 723.39"><defs><style>.cls-1{fill:#00a573;}</style></defs><title>shop</title><path class="cls-1" d="M682.5,699.71c-174.38,0-316-141.63-316-316s141.63-316,316-316,316,141.63,316,316-141.63,316-316,316M682.5,22C483,22,320.8,184.19,320.8,383.7S483,745.39,682.5,745.39s361.7-162.19,361.7-361.7S882,22,682.5,22" transform="translate(-320.8 -22)"/><path class="cls-1" d="M805.94,479a4.7,4.7,0,0,0-4.93,5v20.07a4.94,4.94,0,1,0,9.87,0V484a4.7,4.7,0,0,0-4.93-5" transform="translate(-320.8 -22)"/><path class="cls-1" d="M801,363.63a29.87,29.87,0,0,1-29.63-30.11,30.85,30.85,0,0,0-.91-7.45l-9-72.82h49.37l16.26,66.1,3.49,14.17A29.87,29.87,0,0,1,801,363.63m-118.51,0a29.87,29.87,0,0,1-29.62-30.11V253.26h59.25v80.27a29.87,29.87,0,0,1-29.63,30.1M534.37,383.7H672.62V494.08H534.37Zm69.12-130.45-9,72.82a30.8,30.8,0,0,0-.91,7.45,29.63,29.63,0,1,1-59.25,0l3.49-14.17,16.26-66.1h49.37Zm256.76,0V223.15a20,20,0,0,0-19.75-20.06h-316a20,20,0,0,0-19.75,20.06v30.11l-29.62,80.27c0,13.52,8.06,24.5,19.74,28.49v202.3H712.12V383.7H830.63V564.32h39.5V362c11.69-4,19.75-15,19.75-28.49Z" transform="translate(-320.8 -22)"/></svg>